<?xml version="1.0" standalone="no"?>
<!DOCTYPE svg PUBLIC "-//W3C//DTD SVG 20010904//EN"
 "http://www.w3.org/TR/2001/REC-SVG-20010904/DTD/svg10.dtd">
<svg version="1.0" xmlns="http://www.w3.org/2000/svg"
 width="512.000000pt" height="512.000000pt" viewBox="0 0 512.000000 512.000000"
 preserveAspectRatio="xMidYMid meet">

<g transform="translate(0.000000,512.000000) scale(0.100000,-0.100000)"
fill="#000000" stroke="none">
<path d="M2458 4204 c-173 -41 -305 -179 -338 -353 -5 -30 -10 -94 -10 -142
l0 -89 149 0 149 0 4 103 c3 95 5 107 31 140 51 67 146 74 212 16 41 -36 59
-87 50 -137 -5 -28 -26 -55 -88 -117 -147 -146 -196 -259 -204 -472 l-6 -133
151 0 150 0 3 113 c5 146 27 194 130 286 84 76 122 132 149 220 51 163 4 339
-123 458 -114 108 -255 145 -409 107z"/>
<path d="M2410 2570 l0 -150 150 0 150 0 0 150 0 150 -150 0 -150 0 0 -150z"/>
</g>
</svg>
